# xmcd CD database file
#
# Track frame offsets:
#	182
#	20762
#	38795
#	55620
#	73352
#	84545
#	97530
#	114587
#	120665
#	135050
#	150627
#	164680
#	175877
#
# Disc length: 2567 seconds
#
# Revision: 0
# Processed by: cddbd v1.5PL3 Copyright (c) Steve Scherf et al.
# Submitted via: CDex 1.51
#
DISCID=a10a050d
DTITLE=渡辺俊幸 - 銀河漂流バイファム 音楽集Vol.2
DYEAR=1900
DGENRE=アニメ
TTITLE0=君はス・テ・キ
TTITLE1=行動派
TTITLE2=悲しみの色
TTITLE3=星々の友情
TTITLE4=潜む影
TTITLE5=不退転の決意
TTITLE6=惑星ククト
TTITLE7=ミューラァのテーマ
TTITLE8=追撃戦
TTITLE9=謎の遺跡
TTITLE10=闇からの脱出
TTITLE11=THE ASTRO ENEMY(ミューラァのテーマ)
TTITLE12=賛歌〜明日へ
EXTD=
EXTT0=
EXTT1=
EXTT2=
EXTT3=
EXTT4=
EXTT5=
EXTT6=
EXTT7=
EXTT8=
EXTT9=
EXTT10=
EXTT11=
EXTT12=
PLAYORDER=
